<?xml version="1.0" encoding="UTF-8"?>
<svg xmlns="http://www.w3.org/2000/svg" xmlns:xlink="http://www.w3.org/1999/xlink" width="1500px" height="335px" viewBox="0 0 1498 335" version="1.1">
<g id="surface1">
<path style=" stroke:none;fill-rule:nonzero;fill:rgb(0%,60.000002%,100%);fill-opacity:1;" d="M 0 67.546875 L 41.609375 62.03125 C 83.222656 56.097656 166.445312 45.6875 249.667969 73.070312 C 332.890625 100.867188 416.109375 167.5 499.332031 167.5 C 582.554688 167.5 665.777344 100.867188 749 73.070312 C 832.222656 45.6875 915.445312 56.097656 998.667969 100.867188 C 1081.890625 145.632812 1165.109375 222.679688 1248.332031 234.132812 C 1331.554688 245.585938 1414.777344 189.367188 1456.390625 161.984375 L 1498 134.183594 L 1498 334.082031 L 1456.390625 334.082031 C 1414.777344 334.082031 1331.554688 334.082031 1248.332031 334.082031 C 1165.109375 334.082031 1081.890625 334.082031 998.667969 334.082031 C 915.445312 334.082031 832.222656 334.082031 749 334.082031 C 665.777344 334.082031 582.554688 334.082031 499.332031 334.082031 C 416.109375 334.082031 332.890625 334.082031 249.667969 334.082031 C 166.445312 334.082031 83.222656 334.082031 41.609375 334.082031 L 0 334.082031 Z M 0 67.546875 "/>
</g>
</svg>
